<svg xmlns="http://www.w3.org/2000/svg" viewBox="0 0 962 1059"><g id="Layer_2" data-name="Layer 2"><g id="Layer_1-2" data-name="Layer 1"><path d="M187,452q10,3,26-13a29.54,29.54,0,0,1,2.5,3,33,33,0,0,0,3,3.5L222,449c1.33,1.33,2.5,2,3.5,2a8,8,0,0,0,3.5-1l16-10,62,65q0,3-7,10-56,73-56,170,0,36,8,67,33,133,158,192a283.65,283.65,0,0,0,119,26h9q91-3,161-54a.88.88,0,0,0,1-1,.88.88,0,0,1,1-1q3,1,42,36,3,3,12,11t15,14l7,6q32,5,43,7-8-24-8-42,0-1-31-34t-35-37l-1-1,1-2q44-54,55-95c0-.67.17-1,.5-1s.5-.33.5-1a310.74,310.74,0,0,0,15-95,292.66,292.66,0,0,0-5-51q-14-72-58-125.5A296,296,0,0,0,646,421q-56-24-115-24-47,0-87,13-37,11-75,37a15.83,15.83,0,0,0-4,3,24.49,24.49,0,0,1-3.5,3c-1,.67-1.83.67-2.5,0l-65-65q0-2,7.5-8.5T304,368l-10-10,2-2,4-4,3-2q9-9,8-19,6,2,9,2,11,0,18.5-9a30.5,30.5,0,0,0,7.5-20q0-19-19-25a25.93,25.93,0,0,0-8-1q-13,0-20.5,10a27.73,27.73,0,0,0-5.5,22q-9-6-20,3l-7.5,7.5L253,333l-8,8a45.58,45.58,0,0,1-3-3.5,11.8,11.8,0,0,0-3-3l-3-1.5a7.59,7.59,0,0,0-3-1,21.44,21.44,0,0,0-3.5.5A8.69,8.69,0,0,0,225,335a.88.88,0,0,1-1,1l-2-2q-3-3-35.5-35T150,263q-14-14-20-15a54.85,54.85,0,0,0,2-12q0-15-12-27.5T93,196a26.63,26.63,0,0,0-12,3q-26,9-26,37,0,15,12,27,11,11,26,11,1,0,13-3,0,1,3,7,2,4,85,87c.67.67-.33,2.33-3,5s-3.33,4.67-2,6,3.33,3.17,6,5.5,4.33,3.83,5,4.5q-1,1-14.5,15T171,416q-6,10-3,17h-6a27.66,27.66,0,0,0-19.5,8q-8.5,8-8.5,19,0,3,2,9,7,18,26,18,10,0,18-8Q192,467,187,452Zm696,64q31,7,55,47.5T962,652q0,79-64,124-77,54-77,112a54,54,0,0,0,.5,6,54,54,0,0,1,.5,6l57,71,4,88-80-10-80-57a18,18,0,0,0-8,1.5c-2,1-3,1.83-3,2.5l-1,2q-6,48-71,48l-38-4q-77-21-185-21l-46,1a173.28,173.28,0,0,1-73.5-39.5q-31.5-28.5-47-61a475.2,475.2,0,0,1-25-63Q216,828,214,808l-1-20q-18-76-105-76l-18,1q15-51,62-51a94.83,94.83,0,0,1,23,3q12,3,18,5l6,3q1-16-16-29.5A114.74,114.74,0,0,0,148,624l-17-5Q44,575,44,517a66.86,66.86,0,0,1,2.5-18Q49,490,52,486l2-4q29-24,29-70l-2-25a83.1,83.1,0,0,0-25-43.5Q37,326,22,322L6,317q4-11,23-11l15,1Q0,267,0,228q0-29,22.5-55T68,135l22-12q49-16,49-50,0-15-9-32.5T112,13L102,3a147.82,147.82,0,0,1,29-3,143.78,143.78,0,0,1,70.5,18.5q33.5,18.49,55,45a560.54,560.54,0,0,1,38,52.5Q311,142,318,160l8,19q45,81,86,81a31.84,31.84,0,0,0,13.5-3,76,76,0,0,0,9.5-5l3-3q3-5,3-8,0-8-9-17a82.4,82.4,0,0,0-18-14l-9-6q17-9,39-9,27,0,57,14.5T548,239l16,15a356.63,356.63,0,0,0,45.5,55Q634,333,648,342l14,8q36,15,61,15,24,0,40.5-11.5a63.09,63.09,0,0,0,23.5-30,179.23,179.23,0,0,0,9.5-33.5,187.91,187.91,0,0,0,2.5-31l-1-14q76,44,76,108a115,115,0,0,1-5,33.5Q864,403,859,411l-5,8q-28,46-28,78,0,20,10,34t20,18l9,4a83.38,83.38,0,0,0,9,2q13,0,13-17ZM628,500q12,20,24,55-48,10-107,12V430Q592,439,628,500Zm42,226q-6,61-27,110-50,15-98,16V741Q612,739,670,726ZM660,586q11,49,11,107a582.68,582.68,0,0,1-126,16V598Q608,596,660,586ZM545,937V883q44-2,79-10Q591,928,545,937ZM682,548q-19-60-52-99,61,27,103,81A410.36,410.36,0,0,1,682,548ZM630,918a308.13,308.13,0,0,0,36-56q43-14,74-34Q699,889,630,918ZM773,761q-35,38-91,62,17-49,20-106,52-15,83-34v1Q785,725,773,761ZM356,684q-50-16-79-37a252,252,0,0,1,32-91,376.57,376.57,0,0,0,59,22Q356,628,356,684Zm347,0q0-56-12-106,36-10,59-22a252,252,0,0,1,32,91Q753,668,703,684ZM320,829a410.47,410.47,0,0,0,74,34q18,35,35,55Q361,889,320,829ZM429,449q-32,38-52,99a345.91,345.91,0,0,1-51-18Q368,476,429,449ZM357,718q5,57,21,105-58-24-91-60-12-37-12-79v-1A375.08,375.08,0,0,0,357,718ZM514,937q-45-9-78-63a430.53,430.53,0,0,0,78,9ZM432,500q36-61,82-70V567q-59-2-107-12A324.29,324.29,0,0,1,432,500ZM416,836q-20-46-26-110,52,12,124,14V851Q462,849,416,836ZM388,684a446.37,446.37,0,0,1,11-98q52,10,115,12V709a572.34,572.34,0,0,1-126-16ZM651,256q-6-3-15-8.5T611.5,218Q596,194,596,162q0-6,2-22,45,37,77,37,12,0,18-5a99.23,99.23,0,0,1,12,6q7,4,19,20a58.52,58.52,0,0,1,12,36q0,33-34,78,0-5-.5-12.5t-13.5-23Q675,261,651,256Z"/></g></g></svg>